<svg height="379" width="379" viewBox="0 0 379 379" fill="none" stroke="#AEAEAD"
    stroke-miterlimit="10" stroke-width="1.5" xmlns="http://www.w3.org/2000/svg">
    <g name="top-section">
        <path
            d="M189.472 37.028C199.295 37.028 207.259 29.0562 207.259 19.2226C207.259 9.38897 199.295 1.41724 189.472 1.41724C179.649 1.41724 171.686 9.38897 171.686 19.2226C171.686 29.0562 179.649 37.028 189.472 37.028Z" />
        <path
            d="M314.246 37.028C324.069 37.028 332.032 29.0562 332.032 19.2226C332.032 9.38897 324.069 1.41724 314.246 1.41724C304.422 1.41724 296.459 9.38897 296.459 19.2226C296.459 29.0562 304.422 37.028 314.246 37.028Z" />
        <path
            d="M64.7045 37.028C74.5278 37.028 82.4911 29.0562 82.4911 19.2226C82.4911 9.38897 74.5278 1.41724 64.7045 1.41724C54.8812 1.41724 46.9178 9.38897 46.9178 19.2226C46.9178 29.0562 54.8812 37.028 64.7045 37.028Z" />
        <path d="M296.459 19.2227H207.259" />
        <path d="M171.686 19.2227H82.4911" />
    </g>
    <path d="M189.472 37 V88.8281 v42" />
    <g name="middle-section" transform="translate(0 41)">
        <path
            d="M189.472 124.443C199.295 124.443 207.259 116.471 207.259 106.637C207.259 96.8038 199.295 88.832 189.472 88.832C179.649 88.832 171.686 96.8038 171.686 106.637C171.686 116.471 179.649 124.443 189.472 124.443Z" />
        <path
            d="M359.796 203.17C369.62 203.17 377.583 195.199 377.583 185.365C377.583 175.531 369.62 167.56 359.796 167.56C349.973 167.56 342.01 175.531 342.01 185.365C342.01 195.199 349.973 203.17 359.796 203.17Z" />
        <path
            d="M19.2035 203.17C29.0268 203.17 36.9902 195.199 36.9902 185.365C36.9902 175.531 29.0268 167.56 19.2035 167.56C9.38022 167.56 1.41687 175.531 1.41687 185.365C1.41687 195.199 9.38022 203.17 19.2035 203.17Z" />
        <path d="M172.701 106.899H104.461V185.365H37" />
        <path d="M207.259 106.899H275.498V185.365H342" />
    </g>
    <path d="M189.472 124.443 m 0,41 V257.972 v83" />
    <g name="bottom-section" transform="translate(0 83)">
        <path
            d="M189.472 293.583C199.295 293.583 207.259 285.611 207.259 275.777C207.259 265.944 199.295 257.972 189.472 257.972C179.649 257.972 171.686 265.944 171.686 275.777C171.686 285.611 179.649 293.583 189.472 293.583Z" />
    </g>


</svg>