<svg width="22" height="22" viewBox="0 0 22 22" fill="none" xmlns="http://www.w3.org/2000/svg">
<g clip-path="url(#clip0_474_208)">
<path d="M18.5625 3.40326C16.5688 1.40951 13.8531 0.309509 11.0688 0.309509C5.225 0.309509 0.446875 5.05326 0.446875 10.897C0.446875 12.7876 0.928125 14.5751 1.85625 16.2251L0.34375 21.6908L6.01562 20.247C7.5625 21.072 9.31563 21.5533 11.1031 21.5533C16.9125 21.5189 21.6562 16.7751 21.6562 10.897C21.6562 8.07826 20.5562 5.43139 18.5625 3.40326ZM11.0344 19.7314C9.4875 19.7314 7.87187 19.2845 6.53125 18.4595L6.1875 18.2533L2.85313 19.1126L3.78125 15.8814L3.575 15.5376C2.71562 14.1283 2.23438 12.4783 2.23438 10.8283C2.23438 5.98139 6.15312 2.06263 11.0344 2.06263C13.3719 2.06263 15.5719 2.99076 17.2219 4.64076C18.8719 6.29076 19.8 8.52514 19.8 10.897C19.8687 15.8126 15.8812 19.7314 11.0344 19.7314ZM15.8813 13.1314C15.6062 12.9939 14.3344 12.3408 14.025 12.3064C13.7844 12.2033 13.5781 12.1689 13.4406 12.4439C13.3031 12.7189 12.7531 13.2689 12.6156 13.4751C12.4781 13.6126 12.3406 13.6814 12.0312 13.5095C11.7563 13.372 10.9312 13.1314 9.9 12.1689C9.10938 11.4814 8.55937 10.622 8.45625 10.3126C8.31875 10.0376 8.42188 9.93451 8.59375 9.76264C8.73125 9.62514 8.86875 9.48764 8.97188 9.28139C9.10938 9.14389 9.10938 9.00639 9.24687 8.83451C9.38437 8.69701 9.28125 8.49076 9.2125 8.35326C9.10938 8.21576 8.62813 6.90951 8.3875 6.35951C8.18125 5.80951 7.94063 5.91264 7.80313 5.91264C7.66563 5.91264 7.45937 5.91264 7.32187 5.91264C7.18437 5.91264 6.84062 5.94701 6.63437 6.25639C6.39375 6.53139 5.70625 7.18451 5.70625 8.49076C5.70625 9.79701 6.63437 11.0001 6.80625 11.2408C6.94375 11.3783 8.69688 14.0939 11.3094 15.2626C11.9281 15.5376 12.4094 15.7095 12.8219 15.847C13.4406 16.0533 14.025 15.9845 14.4719 15.9501C14.9875 15.9158 16.0188 15.3314 16.2594 14.6783C16.4656 14.0939 16.4656 13.5095 16.3969 13.4064C16.3281 13.3376 16.1219 13.2345 15.8813 13.1314Z" fill="white"/>
</g>
<defs>
<clipPath id="clip0_474_208">
<rect width="22" height="22" fill="white"/>
</clipPath>
</defs>
</svg>
